<?xml version="1.0" encoding="utf-8"?>
<!-- Generator: Adobe Illustrator 25.1.0, SVG Export Plug-In . SVG Version: 6.00 Build 0)  -->
<svg version="1.1" id="Layer_1" xmlns="http://www.w3.org/2000/svg" xmlns:xlink="http://www.w3.org/1999/xlink" x="0px" y="0px"
	 viewBox="0 0 60 60" style="enable-background:new 0 0 60 60;" xml:space="preserve">
<style type="text/css">
	.st0{fill:#5F2EE5;}
	.st1{fill:#009688;}
</style>
<path class="st0" d="M16.9,22.7c2.1,0,3.8-1.7,3.8-3.8c0-0.5-0.4-0.9-0.9-0.9s-0.9,0.4-0.9,0.9c0,1.1-0.9,2-2,2s-2-0.9-2-2l0,0
	c0-0.5-0.4-0.9-0.9-0.9s-0.9,0.4-0.9,0.9C13.1,21,14.8,22.7,16.9,22.7z"/>
<path class="st0" d="M2.6,35.2h2.9c0.8,1.5,1.8,3,2.9,4.2c2.3,2.6,3.6,5.9,3.6,9.4c0,1.9,1.5,3.4,3.4,3.4h3.5c1.9,0,3.4-1.5,3.4-3.4
	c0-0.9,0.7-1.6,1.6-1.6h6.6c0.9,0,1.6,0.7,1.6,1.6c0,1.9,1.5,3.4,3.4,3.4h3.5v2.6c0,2.1,1.7,3.9,3.9,3.9h12.4c2.1,0,3.9-1.7,3.9-3.9
	V42.5c0-2.1-1.6-3.8-3.7-3.9v-4.3c0-1.2-0.4-2.5-1-3.5c0.2-1.1,0.3-2.2,0.3-3.3c0-0.2,0-0.5,0-0.7c2.9-0.4,5.2-2.8,5.2-5.8
	c0-0.5-0.4-0.9-0.9-0.9c-0.5,0-0.9,0.4-0.9,0.9c0,2-1.5,3.7-3.5,4C53.3,14.2,43.3,5.9,31.2,5.9c-1.5,0-2.9,0.1-4.3,0.3
	c-2.1-3.1-5.6-5-9.3-5c-0.5,0-0.9,0.4-0.9,0.9c0,0.1,0,0.2,0,0.3l0.3,0.8c0.5,1.7,0.7,3.4,0.6,5.1c-4.6,1.8-8.4,5-11.1,9.2l-1,1.6
	H2.6c-1.4,0-2.6,1.2-2.6,2.6v10.9C0,34.1,1.2,35.2,2.6,35.2z M57.5,42.5v12.4c0,1.2-0.9,2.1-2.1,2.1H43c-1.2,0-2.1-0.9-2.1-2.1V42.5
	c0-1.2,0.9-2.1,2.1-2.1h12.4C56.6,40.4,57.5,41.3,57.5,42.5z M53.8,34.3v4.3h-9.2v-4.3c0-2.6,2.1-4.6,4.6-4.6S53.8,31.7,53.8,34.3z
	 M1.8,21.8c0-0.5,0.4-0.8,0.8-0.8h3.3c0.3,0,0.6-0.2,0.8-0.4l1.3-2c2.5-4,6.3-7,10.7-8.7c0.3-0.1,0.6-0.4,0.6-0.7c0.2-2,0.1-4-0.5-6
	c4.7,0.6,8.1,4.6,8.2,9.3c0,0.5,0.4,0.9,0.9,0.9s0.9-0.4,0.9-0.9c0-1.6-0.3-3.1-1-4.5c1.1-0.1,2.3-0.2,3.4-0.2
	c12.1,0,21.9,8.9,21.9,19.8c0,0.6,0,1.1-0.1,1.7c-2.9-2.1-6.9-1.5-9,1.4c-0.8,1.1-1.2,2.4-1.2,3.8v4.3c-2.1,0.1-3.7,1.8-3.7,3.9v8
	h-3.5c-0.9,0-1.6-0.7-1.6-1.6c0-1.9-1.5-3.4-3.4-3.4H24c-1.9,0-3.4,1.5-3.4,3.4c0,0.9-0.7,1.6-1.6,1.6h-3.5c-0.9,0-1.6-0.7-1.6-1.6
	c0-3.9-1.4-7.7-4-10.6C8.6,37,7.6,35.5,6.9,34c-0.1-0.3-0.5-0.5-0.8-0.5H2.6c-0.5,0-0.8-0.4-0.8-0.8V21.8z"/>
<path class="st1" d="M52.4,44.8L52.4,44.8c0.5,0,0.9-0.4,0.9-0.9c0-0.5-0.4-0.9-0.9-0.9l-4.5,0l-1.8,0h0c-0.5,0-0.9,0.4-0.9,0.9
	c0,0.5,0.4,0.9,0.9,0.9l1.8,0c0.6,0,1.2,0.4,1.6,0.9l-3.4,0h0c-0.5,0-0.9,0.4-0.9,0.9c0,0.5,0.4,0.9,0.9,0.9l3.4,0
	c-0.3,0.6-0.9,0.9-1.6,0.9l-1.8,0h0c-0.5,0-0.9,0.4-0.9,0.9c0,0.2,0.1,0.5,0.3,0.6l4.5,4.3c0.4,0.3,0.9,0.3,1.3,0
	c0.3-0.4,0.3-0.9,0-1.3c0,0,0,0,0,0l-2.9-2.8c1.5-0.2,2.7-1.2,3.1-2.6l1,0h0c0.5,0,0.9-0.4,0.9-0.9c0-0.5-0.4-0.9-0.9-0.9l-1,0
	c-0.1-0.3-0.2-0.6-0.4-0.9L52.4,44.8z"/>
</svg>
