<?xml version="1.0" encoding="utf-8"?>
<!-- Generator: Adobe Illustrator 25.1.0, SVG Export Plug-In . SVG Version: 6.00 Build 0)  -->
<svg version="1.1" id="Capa_1" xmlns="http://www.w3.org/2000/svg" xmlns:xlink="http://www.w3.org/1999/xlink" x="0px" y="0px"
	 viewBox="0 0 60 60" style="enable-background:new 0 0 60 60;" xml:space="preserve">
<style type="text/css">
	.st0{fill:#5F2EE5;}
	.st1{fill:#009688;}
</style>
<g>
	<path class="st0" d="M59.9,25.7c-0.3-0.4-0.6-0.8-1.1-0.8H55C52.6,12.1,41.4,2.3,27.7,2.3C12.4,2.3,0,14.7,0,30
		s12.4,27.7,27.7,27.7c9.8,0,19-5.4,24-13.9c0.6-1.1,0.3-2.8-0.9-3.4c-1.1-0.6-2.8-0.3-3.4,0.9c-4.1,7-11.6,11.4-19.7,11.4
		C15.2,52.6,5,42.4,5,29.9S15.2,7.2,27.7,7.2c10.7,0,19.8,7.5,22.1,17.6h-3.7c-0.5,0-0.9,0.3-1.1,0.8c-0.3,0.4-0.1,1,0.1,1.4
		l6.3,7.5c0.3,0.3,0.6,0.5,1,0.5c0.4,0,0.8-0.1,1-0.5l6.3-7.5C60,26.7,60.1,26.2,59.9,25.7z"/>
	<path class="st1" d="M27.7,8.6c-1.4,0-2.6,1.1-2.6,2.6v15.3c-1.1,0.8-1.9,2.2-1.9,3.6c0,2.4,2,4.5,4.5,4.5c0.6,0,1.3-0.1,1.9-0.4
		l8.8,5.1c0.4,0.3,0.8,0.4,1.3,0.4c0.9,0,1.7-0.5,2.2-1.3c0.6-1.1,0.3-2.8-0.9-3.4l-8.8-5.1c-0.1-1.3-0.8-2.6-1.8-3.2V11.2
		C30.3,9.7,29.1,8.6,27.7,8.6z M27.7,31.9c-1,0-1.9-0.9-1.9-1.9s0.9-1.9,1.9-1.9c1,0,1.9,0.9,1.9,1.9S28.7,31.9,27.7,31.9z"/>
</g>
</svg>
