<?xml version="1.0" encoding="utf-8"?>
<!-- Generator: Adobe Illustrator 25.1.0, SVG Export Plug-In . SVG Version: 6.00 Build 0)  -->
<svg version="1.1" id="_x33_0" xmlns="http://www.w3.org/2000/svg" xmlns:xlink="http://www.w3.org/1999/xlink" x="0px" y="0px"
	 viewBox="0 0 60 60" style="enable-background:new 0 0 60 60;" xml:space="preserve">
<style type="text/css">
	.st0{fill:#5F2EE5;}
	.st1{fill:#009688;}
</style>
<path class="st0" d="M23.3,42.7c2.1,0,3.9-1.7,3.9-3.9h-1.9c0,1.1-0.9,1.9-1.9,1.9c-1.1,0-1.9-0.9-1.9-1.9h-1.9
	C19.4,40.9,21.1,42.7,23.3,42.7z"/>
<path class="st0" d="M36.7,42.7c2.1,0,3.9-1.7,3.9-3.9h-1.9c0,1.1-0.9,1.9-1.9,1.9c-1.1,0-1.9-0.9-1.9-1.9H33
	C32.9,40.9,34.6,42.7,36.7,42.7z"/>
<path class="st0" d="M25.2,53.3H31c3.2,0,5.8-2.6,5.8-5.8h-1.9c0,2.1-1.7,3.9-3.9,3.9h-5.8C25.2,51.4,25.2,53.3,25.2,53.3z"/>
<path class="st0" d="M47.3,36.9h-1V35c0-1.1-0.9-1.9-1.9-1.9h-0.3c0.2-0.6,0.3-1.3,0.3-1.9c0-3.4-2.5-6.2-5.8-6.7v-0.1
	c0-2.7-2.2-4.8-4.8-4.8c-1.1,0-2.1,0.4-2.9,1v-2.9h3.9c4.2,0,7.7-3.5,7.7-7.7V4.1h-5.8c-0.6,0-1.2,0.1-1.8,0.2
	c-0.3-0.4-0.7-0.8-1.1-1.2L30,0l-3.8,3.2c-0.4,0.4-0.8,0.7-1.1,1.2c-0.6-0.1-1.2-0.2-1.8-0.2h-5.8V10c0,4.2,3.5,7.7,7.7,7.7H29v2.9
	c-0.8-0.6-1.8-1-2.9-1c-2.7,0-4.8,2.2-4.8,4.8v0.1c-3.3,0.5-5.8,3.3-5.8,6.7c0,0.7,0.1,1.3,0.3,1.9h-0.3c-1.1,0-1.9,0.9-1.9,1.9v1.9
	h-1c-2.7,0-4.8,2.2-4.8,4.8c0,2.7,2.2,4.8,4.8,4.8h1v1c0,6.9,5.6,12.5,12.5,12.5h7.7c6.9,0,12.5-5.6,12.5-12.5v-1h1
	c2.7,0,4.8-2.2,4.8-4.8C52.2,39,50,36.9,47.3,36.9z M33.9,21.5c1.6,0,2.9,1.3,2.9,2.9s-1.3,2.9-2.9,2.9c-0.2,0-0.5,0-0.7-0.1
	L32.6,29c0.4,0.1,0.8,0.2,1.2,0.2c1.9,0,3.6-1.2,4.4-2.8c2.4,0.3,4.3,2.3,4.3,4.8c0,0.7-0.1,1.3-0.4,1.9h-1.5c0-2.1-1.7-3.9-3.9-3.9
	v1.9c1.1,0,1.9,0.9,1.9,1.9H31v-8.7C31,22.8,32.3,21.5,33.9,21.5z M36.7,6.1h3.9V10c0,3.2-2.6,5.8-5.8,5.8h-1.1
	c1.3-1.1,2.3-2.5,2.8-4.1l2.9-2.9L38,7.3l-1.3,1.3c-0.1-0.9-0.3-1.7-0.7-2.5C36.3,6.1,36.5,6.1,36.7,6.1L36.7,6.1z M27.4,4.7L30,2.5
	l2.6,2.2c1.4,1.2,2.2,2.9,2.2,4.7c0,2.3-1.3,4.4-3.4,5.5L31,15.1v-3.8l2.6-2.6l-1.4-1.4L31,8.6V6.1h-2v4.4l-1.2-1.2l-1.4,1.4
	l2.6,2.6v1.9L28.5,15c-2.1-1-3.4-3.1-3.4-5.5C25.2,7.6,26,5.9,27.4,4.7L27.4,4.7z M19.4,9.9V6.1h3.9c0.2,0,0.5,0,0.7,0.1
	c-0.3,0.8-0.6,1.6-0.7,2.5L22,7.3l-1.4,1.4l2.9,2.9c0.5,1.6,1.4,3.1,2.8,4.1h-1.1C22,15.7,19.4,13.1,19.4,9.9z M17.5,31.1
	c0-2.5,1.9-4.5,4.3-4.8c0.8,1.7,2.4,2.8,4.4,2.8c0.4,0,0.8-0.1,1.2-0.2L26.9,27c-0.2,0.1-0.5,0.1-0.7,0.1c-1.6,0-2.9-1.3-2.9-2.9
	s1.3-2.9,2.9-2.9s2.9,1.3,2.9,2.9V33h-7.7c0-1.1,0.9-1.9,1.9-1.9v-1.9c-2.1,0-3.9,1.7-3.9,3.9h-1.5C17.6,32.4,17.5,31.8,17.5,31.1
	L17.5,31.1z M12.7,44.6c-1.6,0-2.9-1.3-2.9-2.9c0-1.6,1.3-2.9,2.9-2.9h1v2.1L12.3,40l-1.1,1.6l2.5,1.6v1.4
	C13.7,44.6,12.7,44.6,12.7,44.6z M44.4,47.5c0,5.8-4.8,10.6-10.6,10.6h-7.7c-5.8,0-10.6-4.8-10.6-10.6V35h28.9V47.5z M47.3,44.6h-1
	v-1.4l2.5-1.6L47.7,40l-1.4,0.9v-2.1h1c1.6,0,2.9,1.3,2.9,2.9C50.2,43.3,48.9,44.6,47.3,44.6z"/>
<path class="st1" d="M0.1,27.3H4v1.9H0.1V27.3z"/>
<path class="st1" d="M5.9,27.3h5.8v1.9H5.9V27.3z"/>
<path class="st1" d="M0.5,23.3l0.4-1.9l11.3,2.3l-0.4,1.9L0.5,23.3z"/>
<path class="st1" d="M2.1,17.7l0.7-1.8l3.6,1.5l-0.7,1.8L2.1,17.7z"/>
<path class="st1" d="M7.4,19.9l0.7-1.8l5.3,2.2l-0.7,1.8L7.4,19.9z"/>
<path class="st1" d="M8.2,7.8l1.4-1.4l2.7,2.7l-1.4,1.4L8.2,7.8z"/>
<path class="st1" d="M12.3,11.9l1.4-1.4l4.1,4.1L16.4,16L12.3,11.9z"/>
<path class="st1" d="M0.5,33.1l11.3-2.3l0.4,1.9L0.9,35L0.5,33.1z"/>
<path class="st1" d="M4.7,12.4l1.1-1.6l9.6,6.4l-1.1,1.6L4.7,12.4z"/>
<path class="st1" d="M56,27.3h3.9v1.9H56V27.3z"/>
<path class="st1" d="M48.3,27.3h5.8v1.9h-5.8V27.3z"/>
<path class="st1" d="M47.8,23.7l11.3-2.3l0.4,1.9l-11.3,2.3L47.8,23.7z"/>
<path class="st1" d="M53.7,17.4l3.6-1.5l0.7,1.8l-3.6,1.5L53.7,17.4z"/>
<path class="st1" d="M46.5,20.3l5.3-2.2l0.7,1.8l-5.3,2.2L46.5,20.3z"/>
<path class="st1" d="M47.7,9.2l2.7-2.7l1.4,1.4l-2.7,2.7L47.7,9.2z"/>
<path class="st1" d="M42.3,14.6l4.1-4.1l1.4,1.4L43.6,16L42.3,14.6z"/>
<path class="st1" d="M47.8,32.7l0.4-1.9l11.3,2.3L59.1,35L47.8,32.7z"/>
<path class="st1" d="M44.7,17.2l9.6-6.4l1.1,1.6l-9.6,6.4L44.7,17.2z"/>
</svg>
